<svg width="64" height="64" viewBox="0 0 64 64" fill="none" xmlns="http://www.w3.org/2000/svg">
  <rect width="64" height="64" rx="16" fill="#121826"/>
  <path d="M21 42.5c2.6 2 6.2 3.3 10.6 3.3 6.8 0 11.4-3.3 11.4-8.5 0-4.7-3.2-6.8-9.8-8.3-4.4-1-6-1.8-6-3.6 0-1.7 1.6-2.9 4.5-2.9 3 0 5.8 1 8.3 2.8l2.5-5.1c-2.7-2-6.2-3.1-10.5-3.1-6.5 0-10.8 3.5-10.8 8.5 0 5.3 4.1 7.1 10.3 8.5 4.1.9 5.4 1.7 5.4 3.4 0 1.9-1.8 3.1-5.1 3.1-3.5 0-6.3-1.1-8.7-3.2L21 42.5Z" fill="white"/>
  <path d="M46 16.5 37.2 47h-5.7l8.8-30.5H46Z" fill="#22C55E"/>
</svg>
