<svg xmlns="http://www.w3.org/2000/svg" xmlns:xlink="http://www.w3.org/1999/xlink" width="1000" zoomAndPan="magnify" viewBox="0 0 750 607.92" height="800" preserveAspectRatio="xMidYMid meet" version="1.0"><defs><clipPath id="2fba657af9"><path d="M 51 5 L 699 5 L 699 572 L 51 572 Z M 51 5 " clip-rule="nonzero"/></clipPath><clipPath id="fd97c57c8b"><path d="M 695.90625 37.875 L 393.753906 560.976562 C 389.882812 567.675781 382.734375 571.804688 375 571.804688 C 367.265625 571.804688 360.117188 567.675781 356.246094 560.976562 L 54.09375 37.875 C 50.226562 31.179688 50.222656 22.929688 54.089844 16.230469 C 57.957031 9.535156 65.101562 5.40625 72.835938 5.40625 L 677.164062 5.40625 C 684.898438 5.40625 692.042969 9.535156 695.910156 16.230469 C 699.777344 22.929688 699.773438 31.179688 695.90625 37.875 Z M 695.90625 37.875 " clip-rule="nonzero"/></clipPath><clipPath id="6de0e631d8"><path d="M 0 0.28125 L 648 0.28125 L 648 566.84375 L 0 566.84375 Z M 0 0.28125 " clip-rule="nonzero"/></clipPath><clipPath id="49cc9a961d"><path d="M 644.90625 32.875 L 342.753906 555.976562 C 338.882812 562.675781 331.734375 566.804688 324 566.804688 C 316.265625 566.804688 309.117188 562.675781 305.246094 555.976562 L 3.09375 32.875 C -0.773438 26.179688 -0.777344 17.929688 3.089844 11.230469 C 6.957031 4.535156 14.101562 0.40625 21.835938 0.40625 L 626.164062 0.40625 C 633.898438 0.40625 641.042969 4.535156 644.910156 11.230469 C 648.777344 17.929688 648.773438 26.179688 644.90625 32.875 Z M 644.90625 32.875 " clip-rule="nonzero"/></clipPath><clipPath id="2601aefc07"><rect x="0" width="648" y="0" height="567"/></clipPath></defs><g clip-path="url(#2fba657af9)"><g clip-path="url(#fd97c57c8b)"><g transform="matrix(1, 0, 0, 1, 51, 5)"><g clip-path="url(#2601aefc07)"><g clip-path="url(#6de0e631d8)"><g clip-path="url(#49cc9a961d)"><path fill="#000000" d="M -15.660156 0.40625 L 663.183594 0.40625 L 663.183594 589.507812 L -15.660156 589.507812 Z M -15.660156 0.40625 " fill-opacity="1" fill-rule="nonzero"/></g></g></g></g></g></g></svg>